<svg width="16" height="54" viewBox="0 0 16 54" fill="none" xmlns="http://www.w3.org/2000/svg">
<mask id="path-1-outside-1_2861_1613" maskUnits="userSpaceOnUse" x="0" y="0" width="16" height="54" fill="black">
<rect fill="white" width="16" height="54"/>
<path d="M14.1463 1.09091L13.0028 36.4141H2.78622L1.64276 1.09091H14.1463ZM7.8821 52.7209C6.1089 52.7209 4.58428 52.0911 3.30824 50.8317C2.04877 49.5722 1.41903 48.0476 1.41903 46.2578C1.41903 44.5012 2.04877 43.0014 3.30824 41.7585C4.58428 40.4991 6.1089 39.8693 7.8821 39.8693C9.58902 39.8693 11.0888 40.4991 12.3814 41.7585C13.6906 43.0014 14.3452 44.5012 14.3452 46.2578C14.3452 47.451 14.0386 48.5365 13.4254 49.5142C12.8288 50.492 12.0417 51.2708 11.0639 51.8509C10.1027 52.4309 9.04214 52.7209 7.8821 52.7209Z"/>
</mask>
<path d="M14.1463 1.09091L15.1458 1.12326L15.1792 0.0909076H14.1463V1.09091ZM13.0028 36.4141V37.4141H13.971L14.0023 36.4464L13.0028 36.4141ZM2.78622 36.4141L1.78675 36.4464L1.81807 37.4141H2.78622V36.4141ZM1.64276 1.09091V0.0909076H0.60986L0.643279 1.12326L1.64276 1.09091ZM3.30824 50.8317L2.60112 51.5388L2.60577 51.5434L3.30824 50.8317ZM3.30824 41.7585L4.01065 42.4703L4.01071 42.4702L3.30824 41.7585ZM12.3814 41.7585L11.6835 42.4748L11.6929 42.4838L12.3814 41.7585ZM13.4254 49.5142L12.5782 48.9829L12.5718 48.9933L13.4254 49.5142ZM11.0639 51.8509L10.5537 50.9908L10.5473 50.9947L11.0639 51.8509ZM13.1468 1.05855L12.0034 36.3817L14.0023 36.4464L15.1458 1.12326L13.1468 1.05855ZM13.0028 35.4141H2.78622V37.4141H13.0028V35.4141ZM3.7857 36.3817L2.64223 1.05855L0.643279 1.12326L1.78675 36.4464L3.7857 36.3817ZM1.64276 2.09091H14.1463V0.0909076H1.64276V2.09091ZM7.8821 51.7209C6.37511 51.7209 5.10194 51.197 4.01071 50.12L2.60577 51.5434C4.06662 52.9853 5.84269 53.7209 7.8821 53.7209V51.7209ZM4.01535 50.1246C2.94443 49.0537 2.41903 47.7838 2.41903 46.2578H0.419034C0.419034 48.3114 1.15311 50.0908 2.60113 51.5388L4.01535 50.1246ZM2.41903 46.2578C2.41903 44.7709 2.94002 43.5268 4.01065 42.4703L2.60583 41.0467C1.15752 42.476 0.419034 44.2315 0.419034 46.2578H2.41903ZM4.01071 42.4702C5.10194 41.3932 6.37511 40.8693 7.8821 40.8693V38.8693C5.84269 38.8693 4.06662 39.6049 2.60577 41.0468L4.01071 42.4702ZM7.8821 40.8693C9.31222 40.8693 10.5658 41.3857 11.6835 42.4748L13.0793 41.0423C11.6117 39.6124 9.86581 38.8693 7.8821 38.8693V40.8693ZM11.6929 42.4838C12.8094 43.5437 13.3452 44.7839 13.3452 46.2578H15.3452C15.3452 44.2185 14.5718 42.4591 13.0699 41.0333L11.6929 42.4838ZM13.3452 46.2578C13.3452 47.2698 13.0881 48.17 12.5782 48.9829L14.2726 50.0455C14.9891 48.9029 15.3452 47.6322 15.3452 46.2578H13.3452ZM12.5718 48.9933C12.0596 49.8328 11.3899 50.4948 10.5537 50.9908L11.5741 52.7109C12.6934 52.0469 13.5981 51.1511 14.2791 50.0351L12.5718 48.9933ZM10.5473 50.9947C9.74736 51.4774 8.8664 51.7209 7.8821 51.7209V53.7209C9.21788 53.7209 10.4581 53.3844 11.5806 52.707L10.5473 50.9947Z" fill="black" mask="url(#path-1-outside-1_2861_1613)"/>
</svg>
