<svg width="27" height="53" viewBox="0 0 27 53" fill="none" xmlns="http://www.w3.org/2000/svg">
<mask id="path-1-outside-1_2861_1611" maskUnits="userSpaceOnUse" x="0" y="0" width="27" height="53" fill="black">
<rect fill="white" width="27" height="53"/>
<path d="M25.294 1.09091V52H13.0142V12.5753H12.7159L1.33097 19.5355V8.89631L13.8842 1.09091H25.294Z"/>
</mask>
<path d="M25.294 1.09091H26.294V0.0909076H25.294V1.09091ZM25.294 52V53H26.294V52H25.294ZM13.0142 52H12.0142V53H13.0142V52ZM13.0142 12.5753H14.0142V11.5753H13.0142V12.5753ZM12.7159 12.5753V11.5753H12.4344L12.1943 11.7221L12.7159 12.5753ZM1.33097 19.5355H0.330966V21.3189L1.85257 20.3887L1.33097 19.5355ZM1.33097 8.89631L0.802934 8.04708L0.330966 8.34054V8.89631H1.33097ZM13.8842 1.09091V0.0909076H13.5987L13.3562 0.241683L13.8842 1.09091ZM24.294 1.09091V52H26.294V1.09091H24.294ZM25.294 51H13.0142V53H25.294V51ZM14.0142 52V12.5753H12.0142V52H14.0142ZM13.0142 11.5753H12.7159V13.5753H13.0142V11.5753ZM12.1943 11.7221L0.809365 18.6823L1.85257 20.3887L13.2375 13.4285L12.1943 11.7221ZM2.33097 19.5355V8.89631H0.330966V19.5355H2.33097ZM1.859 9.74553L14.4123 1.94013L13.3562 0.241683L0.802934 8.04708L1.859 9.74553ZM13.8842 2.09091H25.294V0.0909076H13.8842V2.09091Z" fill="black" mask="url(#path-1-outside-1_2861_1611)"/>
</svg>
