<svg width="41" height="54" viewBox="0 0 41 54" fill="none" xmlns="http://www.w3.org/2000/svg">
<mask id="path-1-outside-1_2861_1612" maskUnits="userSpaceOnUse" x="0" y="0" width="41" height="54" fill="black">
<rect fill="white" width="41" height="54"/>
<path d="M1.75355 53V44.1506L20.3224 27.8935C21.7145 26.634 22.8994 25.4822 23.8771 24.4382C24.8549 23.3776 25.6006 22.317 26.1143 21.2564C26.6281 20.1792 26.8849 19.0109 26.8849 17.7514C26.8849 16.3428 26.5784 15.1413 25.9652 14.147C25.352 13.1361 24.5069 12.3572 23.4297 11.8104C22.3525 11.2635 21.1179 10.9901 19.7259 10.9901C18.3172 10.9901 17.0826 11.2801 16.022 11.8601C14.9614 12.4235 14.1328 13.2438 13.5362 14.321C12.9562 15.3982 12.6662 16.7074 12.6662 18.2486H1.00781C1.00781 14.785 1.7867 11.7938 3.34446 9.27486C4.90223 6.75592 7.08973 4.817 9.90696 3.4581C12.7408 2.08262 16.0303 1.39488 19.7756 1.39488C23.6368 1.39488 26.9927 2.04119 29.843 3.33381C32.6934 4.62642 34.8975 6.43276 36.4553 8.75284C38.0296 11.0563 38.8168 13.7327 38.8168 16.782C38.8168 18.7209 38.4273 20.6432 37.6484 22.549C36.8696 24.4548 35.4692 26.5594 33.4474 28.8629C31.4422 31.1664 28.5919 33.9257 24.8963 37.1406L18.8061 42.7585V43.0817H39.4382V53H1.75355Z"/>
</mask>
<path d="M1.75355 53H0.753551V54H1.75355V53ZM1.75355 44.1506L1.09483 43.3982L0.753551 43.697V44.1506H1.75355ZM20.3224 27.8935L20.9812 28.6459L20.9873 28.6405L20.9934 28.635L20.3224 27.8935ZM23.8771 24.4382L24.6071 25.1218L24.6124 25.116L23.8771 24.4382ZM26.1143 21.2564L27.0143 21.6923L27.017 21.6869L26.1143 21.2564ZM25.9652 14.147L25.1102 14.6656L25.114 14.6719L25.9652 14.147ZM23.4297 11.8104L22.977 12.702L22.977 12.702L23.4297 11.8104ZM16.022 11.8601L16.4912 12.7433L16.5018 12.7375L16.022 11.8601ZM13.5362 14.321L12.6614 13.8365L12.6558 13.8469L13.5362 14.321ZM12.6662 18.2486V19.2486H13.6662V18.2486H12.6662ZM1.00781 18.2486H0.0078125V19.2486H1.00781V18.2486ZM3.34446 9.27486L4.19496 9.80083L4.19496 9.80083L3.34446 9.27486ZM9.90696 3.4581L10.3414 4.35879L10.3436 4.35772L9.90696 3.4581ZM29.843 3.33381L30.256 2.42308L30.256 2.42308L29.843 3.33381ZM36.4553 8.75284L35.625 9.31029L35.6297 9.3171L36.4553 8.75284ZM37.6484 22.549L36.7228 22.1707L36.7228 22.1707L37.6484 22.549ZM33.4474 28.8629L32.6959 28.2033L32.6932 28.2063L33.4474 28.8629ZM24.8963 37.1406L24.24 36.3862L24.229 36.3957L24.2183 36.4056L24.8963 37.1406ZM18.8061 42.7585L18.1281 42.0235L17.8061 42.3205V42.7585H18.8061ZM18.8061 43.0817H17.8061V44.0817H18.8061V43.0817ZM39.4382 43.0817H40.4382V42.0817H39.4382V43.0817ZM39.4382 53V54H40.4382V53H39.4382ZM2.75355 53V44.1506H0.753551V53H2.75355ZM2.41227 44.903L20.9812 28.6459L19.6637 27.1411L1.09483 43.3982L2.41227 44.903ZM20.9934 28.635C22.3999 27.3624 23.6057 26.191 24.607 25.1218L23.1472 23.7547C22.1931 24.7735 21.029 25.9056 19.6515 27.1519L20.9934 28.635ZM24.6124 25.116C25.6423 23.9988 26.4495 22.8584 27.0143 21.6923L25.2144 20.8205C24.7517 21.7756 24.0675 22.7564 23.1419 23.7604L24.6124 25.116ZM27.017 21.6869C27.5983 20.4678 27.8849 19.1514 27.8849 17.7514H25.8849C25.8849 18.8704 25.6578 19.8906 25.2117 20.8259L27.017 21.6869ZM27.8849 17.7514C27.8849 16.1958 27.5452 14.804 26.8164 13.6221L25.114 14.6719C25.6115 15.4787 25.8849 16.4898 25.8849 17.7514H27.8849ZM26.8202 13.6284C26.1081 12.4545 25.122 11.548 23.8824 10.9187L22.977 12.702C23.8917 13.1664 24.5959 13.8178 25.1102 14.6656L26.8202 13.6284ZM23.8824 10.9187C22.645 10.2905 21.2512 9.99006 19.7259 9.99006V11.9901C20.9846 11.9901 22.0601 12.2365 22.977 12.702L23.8824 10.9187ZM19.7259 9.99006C18.1774 9.99006 16.7726 10.3098 15.5422 10.9827L16.5018 12.7375C17.3927 12.2503 18.4571 11.9901 19.7259 11.9901V9.99006ZM15.5529 10.977C14.3168 11.6336 13.3493 12.5945 12.6614 13.8365L14.411 14.8055C14.9163 13.8931 15.606 13.2134 16.4912 12.7432L15.5529 10.977ZM12.6558 13.8469C11.9795 15.1029 11.6662 16.584 11.6662 18.2486H13.6662C13.6662 16.8308 13.9329 15.6935 14.4167 14.7951L12.6558 13.8469ZM12.6662 17.2486H1.00781V19.2486H12.6662V17.2486ZM2.00781 18.2486C2.00781 14.9389 2.75048 12.1366 4.19496 9.80083L2.49396 8.74889C0.822914 11.451 0.0078125 14.6312 0.0078125 18.2486H2.00781ZM4.19496 9.80083C5.64683 7.45314 7.68563 5.63982 10.3414 4.35879L9.47251 2.5574C6.49382 3.99418 4.15763 6.0587 2.49396 8.74889L4.19496 9.80083ZM10.3436 4.35772C13.018 3.05964 16.1533 2.39488 19.7756 2.39488V0.394884C15.9073 0.394884 12.4636 1.1056 9.4703 2.55847L10.3436 4.35772ZM19.7756 2.39488C23.5268 2.39488 26.736 3.02283 29.43 4.24453L30.256 2.42308C27.2493 1.05956 23.7468 0.394884 19.7756 0.394884V2.39488ZM29.43 4.24453C32.1321 5.46989 34.1829 7.16241 35.625 9.31027L37.2855 8.1954C35.6121 5.70312 33.2547 3.78295 30.256 2.42308L29.43 4.24453ZM35.6297 9.3171C37.0798 11.4389 37.8168 13.9145 37.8168 16.782H39.8168C39.8168 13.5509 38.9794 10.6738 37.2809 8.18858L35.6297 9.3171ZM37.8168 16.782C37.8168 18.5833 37.4556 20.3775 36.7228 22.1707L38.5741 22.9273C39.399 20.909 39.8168 18.8585 39.8168 16.782H37.8168ZM36.7228 22.1707C36.0011 23.9365 34.6766 25.9465 32.6959 28.2033L34.199 29.5226C36.2618 27.1723 37.738 24.973 38.5741 22.9273L36.7228 22.1707ZM32.6932 28.2063C30.7308 30.4607 27.9188 33.1858 24.24 36.3862L25.5527 37.8951C29.265 34.6655 32.1537 31.8722 34.2017 29.5195L32.6932 28.2063ZM24.2183 36.4056L18.1281 42.0235L19.4841 43.4936L25.5743 37.8757L24.2183 36.4056ZM17.8061 42.7585V43.0817H19.8061V42.7585H17.8061ZM18.8061 44.0817H39.4382V42.0817H18.8061V44.0817ZM38.4382 43.0817V53H40.4382V43.0817H38.4382ZM39.4382 52H1.75355V54H39.4382V52Z" fill="black" mask="url(#path-1-outside-1_2861_1612)"/>
</svg>
