<svg width="56" height="71" viewBox="0 0 56 71" fill="none" xmlns="http://www.w3.org/2000/svg">
<circle cx="27.885" cy="26.455" r="26.0975" stroke="#0D0C10" stroke-width="0.715"/>
<path d="M25.3826 41.47C25.1603 31.4994 27.1628 27.6613 33.2476 22.88" stroke="#0D0C10" stroke-width="0.715"/>
<path d="M25.3826 41.47C25.3689 33.5207 24.0431 31.0044 20.0201 28.9575" stroke="#0D0C10" stroke-width="0.715"/>
<path d="M28.2425 19.305C26.0937 22.0007 26.4069 24.3235 27.885 28.9575C37.5017 29.1834 41.7495 27.4797 42.5425 13.585C33.4181 15.8499 30.4629 16.7278 28.2425 19.305Z" stroke="#0D0C10" stroke-width="0.715"/>
<path d="M23.983 26.866C25.4381 28.7445 25.226 30.3632 24.2251 33.5924C17.7133 33.7498 14.8371 32.5626 14.3001 22.88C20.4785 24.4584 22.4795 25.0701 23.983 26.866Z" stroke="#0D0C10" stroke-width="0.715"/>
<path d="M2.76276 68.5329C2.29372 68.5329 1.88188 68.4357 1.52724 68.2412C1.1726 68.041 0.89518 67.7693 0.69498 67.4261C0.49478 67.0772 0.39468 66.6796 0.39468 66.2335C0.39468 65.7873 0.48906 65.3926 0.67782 65.0494C0.8723 64.7062 1.13542 64.4374 1.46718 64.2429C1.80466 64.0427 2.18218 63.9426 2.59974 63.9426C3.02302 63.9426 3.39768 64.0398 3.72372 64.2343C4.05548 64.4231 4.31574 64.6919 4.5045 65.0408C4.69326 65.384 4.78764 65.7816 4.78764 66.2335C4.78764 66.2621 4.78478 66.2935 4.77906 66.3278C4.77906 66.3564 4.77906 66.3879 4.77906 66.4222H0.858V65.9675H4.45302L4.21278 66.1477C4.21278 65.8216 4.14128 65.5328 3.99828 65.2811C3.861 65.0237 3.67224 64.8235 3.432 64.6805C3.19176 64.5375 2.91434 64.466 2.59974 64.466C2.29086 64.466 2.01344 64.5375 1.76748 64.6805C1.52152 64.8235 1.3299 65.0237 1.19262 65.2811C1.05534 65.5385 0.9867 65.8331 0.9867 66.1648V66.2592C0.9867 66.6024 1.06106 66.9056 1.20978 67.1687C1.36422 67.4261 1.57586 67.6291 1.8447 67.7779C2.11926 67.9209 2.431 67.9924 2.77992 67.9924C3.05448 67.9924 3.30902 67.9437 3.54354 67.8465C3.78378 67.7493 3.9897 67.6005 4.1613 67.4003L4.5045 67.795C4.3043 68.0353 4.05262 68.2183 3.74946 68.3441C3.45202 68.47 3.12312 68.5329 2.76276 68.5329ZM7.89802 68.5329C7.45186 68.5329 7.05146 68.4357 6.69682 68.2412C6.3479 68.041 6.07334 67.7693 5.87314 67.4261C5.67294 67.0772 5.57284 66.6796 5.57284 66.2335C5.57284 65.7816 5.67294 65.384 5.87314 65.0408C6.07334 64.6976 6.3479 64.4288 6.69682 64.2343C7.05146 64.0398 7.45186 63.9426 7.89802 63.9426C8.28126 63.9426 8.62732 64.017 8.9362 64.1657C9.24508 64.3144 9.48818 64.5375 9.6655 64.8349L9.21076 65.1438C9.05632 64.915 8.8647 64.7463 8.6359 64.6376C8.4071 64.5289 8.15828 64.4746 7.88944 64.4746C7.56912 64.4746 7.28026 64.5489 7.02286 64.6976C6.76546 64.8406 6.5624 65.0437 6.41368 65.3068C6.26496 65.5699 6.1906 65.8788 6.1906 66.2335C6.1906 66.5881 6.26496 66.897 6.41368 67.1601C6.5624 67.4232 6.76546 67.6291 7.02286 67.7779C7.28026 67.9209 7.56912 67.9924 7.88944 67.9924C8.15828 67.9924 8.4071 67.938 8.6359 67.8293C8.8647 67.7207 9.05632 67.5548 9.21076 67.3317L9.6655 67.6406C9.48818 67.9323 9.24508 68.1554 8.9362 68.3098C8.62732 68.4585 8.28126 68.5329 7.89802 68.5329ZM12.6229 68.5329C12.1882 68.5329 11.7964 68.4357 11.4475 68.2412C11.1043 68.041 10.8326 67.7693 10.6324 67.4261C10.4322 67.0772 10.3321 66.6796 10.3321 66.2335C10.3321 65.7816 10.4322 65.384 10.6324 65.0408C10.8326 64.6976 11.1043 64.4288 11.4475 64.2343C11.7907 64.0398 12.1825 63.9426 12.6229 63.9426C13.0691 63.9426 13.4638 64.0398 13.807 64.2343C14.1559 64.4288 14.4276 64.6976 14.6221 65.0408C14.8223 65.384 14.9224 65.7816 14.9224 66.2335C14.9224 66.6796 14.8223 67.0772 14.6221 67.4261C14.4276 67.7693 14.1559 68.041 13.807 68.2412C13.458 68.4357 13.0634 68.5329 12.6229 68.5329ZM12.6229 67.9924C12.949 67.9924 13.2378 67.9209 13.4895 67.7779C13.7412 67.6291 13.9385 67.4232 14.0815 67.1601C14.2302 66.8913 14.3046 66.5824 14.3046 66.2335C14.3046 65.8788 14.2302 65.5699 14.0815 65.3068C13.9385 65.0437 13.7412 64.8406 13.4895 64.6976C13.2378 64.5489 12.9518 64.4746 12.6315 64.4746C12.3112 64.4746 12.0252 64.5489 11.7735 64.6976C11.5218 64.8406 11.3216 65.0437 11.1729 65.3068C11.0242 65.5699 10.9498 65.8788 10.9498 66.2335C10.9498 66.5824 11.0242 66.8913 11.1729 67.1601C11.3216 67.4232 11.5218 67.6291 11.7735 67.7779C12.0252 67.9209 12.3083 67.9924 12.6229 67.9924ZM18.077 66.4308V65.8988H20.3249V66.4308H18.077ZM24.0363 68.49V63.4192C24.0363 63.0188 24.1535 62.6956 24.388 62.4497C24.6226 62.2037 24.96 62.0807 25.4005 62.0807C25.5721 62.0807 25.738 62.1036 25.8981 62.1494C26.0583 62.1951 26.1927 62.2666 26.3014 62.3639L26.0955 62.8186C26.0097 62.7443 25.9096 62.6899 25.7952 62.6556C25.6808 62.6156 25.5578 62.5955 25.4262 62.5955C25.1688 62.5955 24.9715 62.667 24.8342 62.81C24.6969 62.953 24.6283 63.1647 24.6283 63.445V64.1314L24.6454 64.4145V68.49H24.0363ZM23.2297 64.4917V63.9855H26.0182V64.4917H23.2297ZM26.8408 68.49V63.9855H27.4242V65.2124L27.3642 64.9979C27.49 64.6547 27.7016 64.3945 27.9991 64.2172C28.2965 64.0341 28.6655 63.9426 29.1059 63.9426V64.5346C29.083 64.5346 29.0601 64.5346 29.0373 64.5346C29.0144 64.5289 28.9915 64.526 28.9686 64.526C28.4939 64.526 28.1221 64.6719 27.8532 64.9636C27.5844 65.2496 27.45 65.6586 27.45 66.1906V68.49H26.8408ZM30.2175 68.49V63.9855H30.8267V68.49H30.2175ZM30.5264 62.9902C30.4005 62.9902 30.2947 62.9473 30.2089 62.8615C30.1231 62.7757 30.0802 62.6728 30.0802 62.5526C30.0802 62.4325 30.1231 62.3324 30.2089 62.2523C30.2947 62.1665 30.4005 62.1236 30.5264 62.1236C30.6522 62.1236 30.758 62.1637 30.8438 62.2437C30.9296 62.3238 30.9725 62.4239 30.9725 62.5441C30.9725 62.6699 30.9296 62.7757 30.8438 62.8615C30.7637 62.9473 30.6579 62.9902 30.5264 62.9902ZM34.435 68.5329C33.966 68.5329 33.5541 68.4357 33.1995 68.2412C32.8449 68.041 32.5674 67.7693 32.3672 67.4261C32.167 67.0772 32.0669 66.6796 32.0669 66.2335C32.0669 65.7873 32.1613 65.3926 32.3501 65.0494C32.5446 64.7062 32.8077 64.4374 33.1394 64.2429C33.4769 64.0427 33.8544 63.9426 34.272 63.9426C34.6953 63.9426 35.0699 64.0398 35.396 64.2343C35.7277 64.4231 35.988 64.6919 36.1768 65.0408C36.3655 65.384 36.4599 65.7816 36.4599 66.2335C36.4599 66.2621 36.457 66.2935 36.4513 66.3278C36.4513 66.3564 36.4513 66.3879 36.4513 66.4222H32.5303V65.9675H36.1253L35.885 66.1477C35.885 65.8216 35.8135 65.5328 35.6705 65.2811C35.5333 65.0237 35.3445 64.8235 35.1043 64.6805C34.864 64.5375 34.5866 64.466 34.272 64.466C33.9631 64.466 33.6857 64.5375 33.4397 64.6805C33.1938 64.8235 33.0022 65.0237 32.8649 65.2811C32.7276 65.5385 32.659 65.8331 32.659 66.1648V66.2592C32.659 66.6024 32.7333 66.9056 32.882 67.1687C33.0365 67.4261 33.2481 67.6291 33.517 67.7779C33.7915 67.9209 34.1033 67.9924 34.4522 67.9924C34.7267 67.9924 34.9813 67.9437 35.2158 67.8465C35.456 67.7493 35.662 67.6005 35.8336 67.4003L36.1768 67.795C35.9766 68.0353 35.7249 68.2183 35.4217 68.3441C35.1243 68.47 34.7954 68.5329 34.435 68.5329ZM39.9993 63.9426C40.3654 63.9426 40.6857 64.0141 40.9602 64.1571C41.2405 64.2944 41.4579 64.506 41.6123 64.792C41.7725 65.078 41.8526 65.4384 41.8526 65.8731V68.49H41.2434V65.9332C41.2434 65.4584 41.1233 65.1009 40.883 64.8607C40.6485 64.6147 40.3167 64.4917 39.8877 64.4917C39.5674 64.4917 39.2871 64.5575 39.0469 64.6891C38.8124 64.8149 38.6293 65.0008 38.4978 65.2468C38.3719 65.487 38.309 65.7787 38.309 66.1219V68.49H37.6998V63.9855H38.2833V65.221L38.1889 64.9894C38.3319 64.6633 38.5607 64.4088 38.8753 64.2257C39.1899 64.037 39.5646 63.9426 39.9993 63.9426ZM45.2913 68.5329C44.8623 68.5329 44.4762 68.4357 44.133 68.2412C43.7955 68.0467 43.5295 67.7779 43.335 67.4347C43.1406 67.0857 43.0433 66.6853 43.0433 66.2335C43.0433 65.7759 43.1406 65.3755 43.335 65.0323C43.5295 64.6891 43.7955 64.4231 44.133 64.2343C44.4762 64.0398 44.8623 63.9426 45.2913 63.9426C45.686 63.9426 46.0377 64.0313 46.3466 64.2086C46.6612 64.3859 46.91 64.6462 47.0931 64.9894C47.2818 65.3268 47.3762 65.7415 47.3762 66.2335C47.3762 66.7197 47.2847 67.1344 47.1017 67.4776C46.9186 67.8208 46.6698 68.0839 46.3552 68.2669C46.0463 68.4442 45.6917 68.5329 45.2913 68.5329ZM45.3342 67.9924C45.6545 67.9924 45.9405 67.9209 46.1922 67.7779C46.4496 67.6291 46.6498 67.4232 46.7928 67.1601C46.9415 66.8913 47.0159 66.5824 47.0159 66.2335C47.0159 65.8788 46.9415 65.5699 46.7928 65.3068C46.6498 65.0437 46.4496 64.8406 46.1922 64.6976C45.9405 64.5489 45.6545 64.4746 45.3342 64.4746C45.0196 64.4746 44.7364 64.5489 44.4848 64.6976C44.2331 64.8406 44.0329 65.0437 43.8842 65.3068C43.7354 65.5699 43.6611 65.8788 43.6611 66.2335C43.6611 66.5824 43.7354 66.8913 43.8842 67.1601C44.0329 67.4232 44.2331 67.6291 44.4848 67.7779C44.7364 67.9209 45.0196 67.9924 45.3342 67.9924ZM47.033 68.49V67.1344L47.0931 66.2249L47.0073 65.3154V62.1236H47.6165V68.49H47.033ZM49.313 68.49V62.1236H49.9222V68.49H49.313ZM51.6515 70.1974C51.4399 70.1974 51.2368 70.1631 51.0424 70.0945C50.8536 70.0258 50.6906 69.9229 50.5533 69.7856L50.8364 69.3308C50.9508 69.4395 51.0738 69.5225 51.2054 69.5797C51.3427 69.6426 51.4942 69.674 51.6601 69.674C51.8603 69.674 52.0319 69.6168 52.1749 69.5024C52.3236 69.3938 52.4638 69.1993 52.5953 68.919L52.8871 68.2583L52.9557 68.164L54.809 63.9855H55.4096L53.153 69.0305C53.0272 69.3223 52.8871 69.5539 52.7326 69.7255C52.5839 69.8971 52.4209 70.0172 52.2436 70.0859C52.0662 70.1602 51.8689 70.1974 51.6515 70.1974ZM52.8527 68.6187L50.7764 63.9855H51.4113L53.2474 68.1211L52.8527 68.6187Z" fill="#0D0C10"/>
</svg>
