<svg width="54" height="69" viewBox="0 0 54 69" fill="none" xmlns="http://www.w3.org/2000/svg">
<path d="M35.6525 41.9699V38.3949C38.2941 35.9418 40.6575 34.1049 42.445 31.9599C44.2325 29.8149 43.16 20.8774 42.0875 20.8774C41.015 20.8774 40.3 23.0224 40.3 23.0224V28.3849M40.3 28.3849C39.9425 29.4574 38.155 31.6024 35.6525 33.3899M40.3 28.3849C39.1552 26.6951 38.9754 26.582 37.44 27.6699C35.2075 30.4025 34.2225 30.8874 31.005 32.3174C27.7875 33.7474 27.7875 37.3224 28.5025 38.0374C29.2175 38.7524 28.86 42.3274 28.86 42.3274" stroke="#0D0C10" stroke-width="0.715"/>
<path d="M20.1635 41.6125V38.0375C17.5218 35.5844 15.1585 33.7475 13.371 31.6025C11.5835 29.4575 12.656 20.52 13.7285 20.52C14.801 20.52 15.516 22.665 15.516 22.665V28.0275M15.516 28.0275C15.8735 29.1 17.661 31.245 20.1635 33.0325M15.516 28.0275C16.6608 26.3377 16.8405 26.2245 18.376 27.3125C20.6084 30.0451 21.5935 30.53 24.811 31.96C28.0285 33.39 28.0285 36.965 27.3135 37.68C26.5985 38.395 26.956 41.97 26.956 41.97" stroke="#0D0C10" stroke-width="0.715"/>
<circle cx="27.43" cy="26.955" r="26.0975" stroke="#0D0C10" stroke-width="0.715"/>
<path d="M21.3524 13.7275C23.4765 13.5864 26.1857 14.9177 28.1449 18.7325C29.8984 15.3645 32.4349 13.37 34.9374 13.7275C37.4399 14.085 39.2274 16.23 39.2274 19.4475C39.2274 22.665 27.7874 30.1725 27.7874 30.1725C27.7874 30.1725 16.6963 23.5934 16.7049 19.4475C16.7135 15.3016 19.2284 13.8685 21.3524 13.7275Z" stroke="#0D0C10" stroke-width="0.715"/>
<path d="M4.07888 63.4426C4.44496 63.4426 4.76528 63.5141 5.03984 63.6571C5.32012 63.7944 5.53748 64.006 5.69192 64.292C5.85208 64.578 5.93216 64.9384 5.93216 65.3731V67.99H5.32298V65.4332C5.32298 64.9584 5.20286 64.6009 4.96262 64.3607C4.7281 64.1147 4.39634 63.9917 3.96734 63.9917C3.64702 63.9917 3.36674 64.0575 3.1265 64.1891C2.89198 64.3149 2.70894 64.5008 2.57738 64.7468C2.45154 64.987 2.38862 65.2787 2.38862 65.6219V67.99H1.77944V61.6236H2.38862V64.721L2.2685 64.4894C2.4115 64.1633 2.6403 63.9088 2.9549 63.7257C3.2695 63.537 3.64416 63.4426 4.07888 63.4426ZM10.4005 67.99V66.9947L10.3747 66.8317V65.1672C10.3747 64.7839 10.266 64.4894 10.0487 64.2834C9.83705 64.0775 9.51959 63.9746 9.09631 63.9746C8.80459 63.9746 8.52717 64.0232 8.26405 64.1204C8.00093 64.2177 7.77785 64.3464 7.59481 64.5065L7.32025 64.0518C7.54905 63.8573 7.82361 63.7086 8.14393 63.6056C8.46425 63.4969 8.80173 63.4426 9.15637 63.4426C9.73981 63.4426 10.1888 63.5885 10.5034 63.8802C10.8237 64.1662 10.9839 64.6038 10.9839 65.1929V67.99H10.4005ZM8.84749 68.0329C8.51001 68.0329 8.21543 67.9786 7.96375 67.8699C7.71779 67.7555 7.52903 67.601 7.39747 67.4066C7.26591 67.2064 7.20013 66.9776 7.20013 66.7202C7.20013 66.4856 7.25447 66.274 7.36315 66.0852C7.47755 65.8908 7.66059 65.7363 7.91227 65.6219C8.16967 65.5018 8.51287 65.4417 8.94187 65.4417H10.4948V65.8965H8.95903C8.52431 65.8965 8.22115 65.9737 8.04955 66.1281C7.88367 66.2826 7.80073 66.4742 7.80073 66.703C7.80073 66.9604 7.90083 67.1663 8.10103 67.3208C8.30123 67.4752 8.58151 67.5524 8.94187 67.5524C9.28507 67.5524 9.57965 67.4752 9.82561 67.3208C10.0773 67.1606 10.2603 66.9318 10.3747 66.6344L10.512 67.0548C10.3976 67.3522 10.1974 67.5896 9.91141 67.7669C9.63113 67.9442 9.27649 68.0329 8.84749 68.0329ZM14.9379 63.4426C15.304 63.4426 15.6243 63.5141 15.8989 63.6571C16.1792 63.7944 16.3965 64.006 16.551 64.292C16.7111 64.578 16.7912 64.9384 16.7912 65.3731V67.99H16.182V65.4332C16.182 64.9584 16.0619 64.6009 15.8217 64.3607C15.5872 64.1147 15.2554 63.9917 14.8264 63.9917C14.5061 63.9917 14.2258 64.0575 13.9856 64.1891C13.751 64.3149 13.568 64.5008 13.4364 64.7468C13.3106 64.987 13.2477 65.2787 13.2477 65.6219V67.99H12.6385V63.4855H13.2219V64.721L13.1276 64.4894C13.2706 64.1633 13.4994 63.9088 13.814 63.7257C14.1286 63.537 14.5032 63.4426 14.9379 63.4426ZM20.2299 68.0329C19.8009 68.0329 19.4148 67.9357 19.0716 67.7412C18.7341 67.5467 18.4682 67.2779 18.2737 66.9347C18.0792 66.5857 17.982 66.1853 17.982 65.7335C17.982 65.2759 18.0792 64.8755 18.2737 64.5323C18.4682 64.1891 18.7341 63.9231 19.0716 63.7343C19.4148 63.5398 19.8009 63.4426 20.2299 63.4426C20.6246 63.4426 20.9764 63.5313 21.2853 63.7086C21.5999 63.8859 21.8487 64.1462 22.0317 64.4894C22.2205 64.8268 22.3149 65.2415 22.3149 65.7335C22.3149 66.2197 22.2233 66.6344 22.0403 66.9776C21.8573 67.3208 21.6084 67.5839 21.2938 67.7669C20.985 67.9442 20.6303 68.0329 20.2299 68.0329ZM20.2728 67.4924C20.5931 67.4924 20.8791 67.4209 21.1308 67.2779C21.3882 67.1291 21.5884 66.9232 21.7314 66.6601C21.8801 66.3913 21.9545 66.0824 21.9545 65.7335C21.9545 65.3788 21.8801 65.0699 21.7314 64.8068C21.5884 64.5437 21.3882 64.3406 21.1308 64.1976C20.8791 64.0489 20.5931 63.9746 20.2728 63.9746C19.9582 63.9746 19.6751 64.0489 19.4234 64.1976C19.1717 64.3406 18.9715 64.5437 18.8228 64.8068C18.6741 65.0699 18.5997 65.3788 18.5997 65.7335C18.5997 66.0824 18.6741 66.3913 18.8228 66.6601C18.9715 66.9232 19.1717 67.1291 19.4234 67.2779C19.6751 67.4209 19.9582 67.4924 20.2728 67.4924ZM21.9717 67.99V66.6344L22.0317 65.7249L21.9459 64.8154V61.6236H22.5551V67.99H21.9717ZM32.1257 63.4426C32.4918 63.4426 32.8092 63.5141 33.0781 63.6571C33.3526 63.7944 33.5643 64.006 33.713 64.292C33.8674 64.578 33.9447 64.9384 33.9447 65.3731V67.99H33.3355V65.4332C33.3355 64.9584 33.2211 64.6009 32.9923 64.3607C32.7692 64.1147 32.4517 63.9917 32.0399 63.9917C31.731 63.9917 31.4622 64.0575 31.2334 64.1891C31.0103 64.3149 30.8358 64.5008 30.71 64.7468C30.5899 64.987 30.5298 65.2787 30.5298 65.6219V67.99H29.9206V65.4332C29.9206 64.9584 29.8062 64.6009 29.5774 64.3607C29.3486 64.1147 29.0283 63.9917 28.6165 63.9917C28.3133 63.9917 28.0473 64.0575 27.8185 64.1891C27.5897 64.3149 27.4124 64.5008 27.2866 64.7468C27.1665 64.987 27.1064 65.2787 27.1064 65.6219V67.99H26.4972V63.4855H27.0807V64.7039L26.9863 64.4894C27.1236 64.1633 27.3438 63.9088 27.6469 63.7257C27.9558 63.537 28.319 63.4426 28.7366 63.4426C29.177 63.4426 29.5517 63.5541 29.8606 63.7772C30.1695 63.9946 30.3697 64.3235 30.4612 64.7639L30.2209 64.6695C30.3525 64.3034 30.5842 64.0089 30.9159 63.7858C31.2534 63.557 31.6567 63.4426 32.1257 63.4426ZM38.4195 67.99V66.9947L38.3938 66.8317V65.1672C38.3938 64.7839 38.2851 64.4894 38.0677 64.2834C37.8561 64.0775 37.5386 63.9746 37.1154 63.9746C36.8236 63.9746 36.5462 64.0232 36.2831 64.1204C36.02 64.2177 35.7969 64.3464 35.6139 64.5065L35.3393 64.0518C35.5681 63.8573 35.8427 63.7086 36.163 63.6056C36.4833 63.4969 36.8208 63.4426 37.1754 63.4426C37.7589 63.4426 38.2079 63.5885 38.5225 63.8802C38.8428 64.1662 39.003 64.6038 39.003 65.1929V67.99H38.4195ZM36.8665 68.0329C36.5291 68.0329 36.2345 67.9786 35.9828 67.8699C35.7368 67.7555 35.5481 67.601 35.4165 67.4066C35.285 67.2064 35.2192 66.9776 35.2192 66.7202C35.2192 66.4856 35.2735 66.274 35.3822 66.0852C35.4966 65.8908 35.6796 65.7363 35.9313 65.6219C36.1887 65.5018 36.5319 65.4417 36.9609 65.4417H38.5139V65.8965H36.9781C36.5434 65.8965 36.2402 65.9737 36.0686 66.1281C35.9027 66.2826 35.8198 66.4742 35.8198 66.703C35.8198 66.9604 35.9199 67.1663 36.1201 67.3208C36.3203 67.4752 36.6006 67.5524 36.9609 67.5524C37.3041 67.5524 37.5987 67.4752 37.8447 67.3208C38.0963 67.1606 38.2794 66.9318 38.3938 66.6344L38.5311 67.0548C38.4167 67.3522 38.2165 67.5896 37.9305 67.7669C37.6502 67.9442 37.2955 68.0329 36.8665 68.0329ZM42.4508 68.0329C42.0218 68.0329 41.6357 67.9357 41.2925 67.7412C40.955 67.5467 40.689 67.2779 40.4945 66.9347C40.3001 66.5857 40.2028 66.1853 40.2028 65.7335C40.2028 65.2759 40.3001 64.8755 40.4945 64.5323C40.689 64.1891 40.955 63.9231 41.2925 63.7343C41.6357 63.5398 42.0218 63.4426 42.4508 63.4426C42.8455 63.4426 43.1972 63.5313 43.5061 63.7086C43.8207 63.8859 44.0695 64.1462 44.2526 64.4894C44.4413 64.8268 44.5357 65.2415 44.5357 65.7335C44.5357 66.2197 44.4442 66.6344 44.2612 66.9776C44.0781 67.3208 43.8293 67.5839 43.5147 67.7669C43.2058 67.9442 42.8512 68.0329 42.4508 68.0329ZM42.4937 67.4924C42.814 67.4924 43.1 67.4209 43.3517 67.2779C43.6091 67.1291 43.8093 66.9232 43.9523 66.6601C44.101 66.3913 44.1754 66.0824 44.1754 65.7335C44.1754 65.3788 44.101 65.0699 43.9523 64.8068C43.8093 64.5437 43.6091 64.3406 43.3517 64.1976C43.1 64.0489 42.814 63.9746 42.4937 63.9746C42.1791 63.9746 41.8959 64.0489 41.6443 64.1976C41.3926 64.3406 41.1924 64.5437 41.0437 64.8068C40.8949 65.0699 40.8206 65.3788 40.8206 65.7335C40.8206 66.0824 40.8949 66.3913 41.0437 66.6601C41.1924 66.9232 41.3926 67.1291 41.6443 67.2779C41.8959 67.4209 42.1791 67.4924 42.4937 67.4924ZM44.1925 67.99V66.6344L44.2526 65.7249L44.1668 64.8154V61.6236H44.776V67.99H44.1925ZM48.3859 68.0329C47.9168 68.0329 47.505 67.9357 47.1503 67.7412C46.7957 67.541 46.5183 67.2693 46.3181 66.9261C46.1179 66.5772 46.0178 66.1796 46.0178 65.7335C46.0178 65.2873 46.1122 64.8926 46.3009 64.5494C46.4954 64.2062 46.7585 63.9374 47.0903 63.7429C47.4278 63.5427 47.8053 63.4426 48.2228 63.4426C48.6461 63.4426 49.0208 63.5398 49.3468 63.7343C49.6786 63.9231 49.9388 64.1919 50.1276 64.5408C50.3164 64.884 50.4107 65.2816 50.4107 65.7335C50.4107 65.7621 50.4079 65.7935 50.4022 65.8278C50.4022 65.8564 50.4022 65.8879 50.4022 65.9222H46.4811V65.4675H50.0761L49.8359 65.6477C49.8359 65.3216 49.7644 65.0328 49.6214 64.7811C49.4841 64.5237 49.2953 64.3235 49.0551 64.1805C48.8149 64.0375 48.5374 63.966 48.2228 63.966C47.914 63.966 47.6365 64.0375 47.3906 64.1805C47.1446 64.3235 46.953 64.5237 46.8157 64.7811C46.6784 65.0385 46.6098 65.3331 46.6098 65.6648V65.7592C46.6098 66.1024 46.6842 66.4056 46.8329 66.6687C46.9873 66.9261 47.199 67.1291 47.4678 67.2779C47.7424 67.4209 48.0541 67.4924 48.403 67.4924C48.6776 67.4924 48.9321 67.4437 49.1666 67.3465C49.4069 67.2493 49.6128 67.1005 49.7844 66.9003L50.1276 67.295C49.9274 67.5353 49.6757 67.7183 49.3726 67.8441C49.0751 67.97 48.7462 68.0329 48.3859 68.0329Z" fill="#0D0C10"/>
</svg>
