<svg width="54" height="71" viewBox="0 0 54 71" fill="none" xmlns="http://www.w3.org/2000/svg">
<circle cx="26.585" cy="26.455" r="26.0975" stroke="#0D0C10" stroke-width="0.715"/>
<path d="M27.2999 20.3775C27.1534 25.8954 25.223 27.3549 19.4349 27.885C13.9297 27.3344 12.7208 25.8851 14.7874 20.735C16.1544 18.1697 17.3985 17.0847 20.5074 15.73C22.1902 15.6129 23.0609 15.6477 24.0824 16.445C26.7662 12.4939 28.4677 10.5956 33.0199 9.65253C35.1454 8.89562 35.6615 9.49286 35.5224 12.155C35.042 14.9355 33.6059 16.7671 27.2999 20.02" stroke="#0D0C10" stroke-width="0.715"/>
<path d="M20.5074 15.73C22.6262 12.1814 24.1712 10.7085 28.0149 9.65247C29.6464 9.53533 30.1544 9.67307 29.4449 10.725" stroke="#0D0C10" stroke-width="0.715"/>
<path d="M26.9424 22.5225C34.4033 21.9343 38.7399 26.455 40.5274 31.1025" stroke="#0D0C10" stroke-width="0.715"/>
<path d="M40.5274 31.1025L40.8849 31.8175C43.2819 31.8766 43.9573 32.2955 44.1024 34.32C44.0442 36.9008 43.0466 37.3934 40.5274 37.5375" stroke="#0D0C10" stroke-width="0.715"/>
<path d="M19.4349 27.885C17.716 30.7491 17.966 32.5631 20.1499 36.1075C18.0974 36.7859 17.36 37.5324 16.5749 39.325C16.3706 40.978 16.4122 41.8037 18.7199 41.8275C23.4648 40.2386 25.537 38.8747 28.3724 35.75C27.6513 33.4059 27.7443 32.2335 28.7299 30.3875" stroke="#0D0C10" stroke-width="0.715"/>
<path d="M28.3724 35.7499C29.54 36.7054 30.2997 37.1869 31.9474 37.8949C28.1481 38.4865 27.6021 39.2325 28.7299 41.1124C31.1292 41.7039 32.2801 41.3903 34.0924 40.0399C37.5314 39.975 38.7207 39.2101 40.5274 37.5374C41.3899 35.9226 41.3323 34.9717 40.8849 33.2474" stroke="#0D0C10" stroke-width="0.715"/>
<path d="M31.2324 28.2425C31.8084 27.554 32.2126 27.2954 33.3774 27.5275" stroke="#0D0C10" stroke-width="0.715"/>
<path d="M29.4449 29.6725C29.7815 29.3452 29.9975 29.1781 30.5174 28.9575" stroke="#0D0C10" stroke-width="0.715"/>
<path d="M2.84986 68.5329C2.4037 68.5329 2.0033 68.4357 1.64866 68.2412C1.29974 68.041 1.02518 67.7693 0.824985 67.4261C0.624785 67.0772 0.524685 66.6796 0.524685 66.2335C0.524685 65.7816 0.624785 65.384 0.824985 65.0408C1.02518 64.6976 1.29974 64.4288 1.64866 64.2343C2.0033 64.0398 2.4037 63.9426 2.84986 63.9426C3.2331 63.9426 3.57916 64.017 3.88805 64.1657C4.19692 64.3144 4.44002 64.5375 4.61734 64.8349L4.16261 65.1438C4.00817 64.915 3.81655 64.7463 3.58775 64.6376C3.35894 64.5289 3.11012 64.4746 2.84128 64.4746C2.52097 64.4746 2.2321 64.5489 1.9747 64.6976C1.7173 64.8406 1.51424 65.0437 1.36552 65.3068C1.2168 65.5699 1.14244 65.8788 1.14244 66.2335C1.14244 66.5881 1.2168 66.897 1.36552 67.1601C1.51424 67.4232 1.7173 67.6291 1.9747 67.7779C2.2321 67.9209 2.52097 67.9924 2.84128 67.9924C3.11012 67.9924 3.35894 67.938 3.58775 67.8293C3.81655 67.7207 4.00817 67.5548 4.16261 67.3317L4.61734 67.6406C4.44002 67.9323 4.19692 68.1554 3.88805 68.3098C3.57916 68.4585 3.2331 68.5329 2.84986 68.5329ZM5.81405 68.49V63.9855H6.39749V65.2124L6.33743 64.9979C6.46327 64.6547 6.67491 64.3945 6.97235 64.2172C7.26979 64.0341 7.63873 63.9426 8.07917 63.9426V64.5346C8.05629 64.5346 8.03341 64.5346 8.01053 64.5346C7.98765 64.5289 7.96477 64.526 7.94189 64.526C7.46713 64.526 7.09533 64.6719 6.82649 64.9636C6.55765 65.2496 6.42323 65.6586 6.42323 66.1906V68.49H5.81405ZM11.1196 68.5329C10.7364 68.5329 10.4018 68.4614 10.1158 68.3184C9.82978 68.1754 9.6067 67.9609 9.44654 67.6749C9.2921 67.3889 9.21488 67.0314 9.21488 66.6024V63.9855H9.82406V66.5338C9.82406 67.0142 9.94132 67.3775 10.1758 67.6234C10.4161 67.8637 10.7507 67.9838 11.1797 67.9838C11.4943 67.9838 11.766 67.9209 11.9948 67.795C12.2293 67.6635 12.4066 67.4747 12.5268 67.2287C12.6526 66.9828 12.7155 66.6882 12.7155 66.345V63.9855H13.3247V68.49H12.7413V67.2545L12.8356 67.4776C12.6926 67.8093 12.4696 68.0696 12.1664 68.2583C11.869 68.4414 11.52 68.5329 11.1196 68.5329ZM16.9358 68.5329C16.4668 68.5329 16.0549 68.4357 15.7003 68.2412C15.3457 68.041 15.0682 67.7693 14.868 67.4261C14.6678 67.0772 14.5677 66.6796 14.5677 66.2335C14.5677 65.7873 14.6621 65.3926 14.8509 65.0494C15.0454 64.7062 15.3085 64.4374 15.6402 64.2429C15.9777 64.0427 16.3552 63.9426 16.7728 63.9426C17.1961 63.9426 17.5707 64.0398 17.8968 64.2343C18.2285 64.4231 18.4888 64.6919 18.6776 65.0408C18.8663 65.384 18.9607 65.7816 18.9607 66.2335C18.9607 66.2621 18.9578 66.2935 18.9521 66.3278C18.9521 66.3564 18.9521 66.3879 18.9521 66.4222H15.0311V65.9675H18.6261L18.3858 66.1477C18.3858 65.8216 18.3143 65.5328 18.1713 65.2811C18.0341 65.0237 17.8453 64.8235 17.6051 64.6805C17.3648 64.5375 17.0874 64.466 16.7728 64.466C16.4639 64.466 16.1865 64.5375 15.9405 64.6805C15.6946 64.8235 15.503 65.0237 15.3657 65.2811C15.2284 65.5385 15.1598 65.8331 15.1598 66.1648V66.2592C15.1598 66.6024 15.2341 66.9056 15.3828 67.1687C15.5373 67.4261 15.7489 67.6291 16.0178 67.7779C16.2923 67.9209 16.6041 67.9924 16.953 67.9924C17.2275 67.9924 17.4821 67.9437 17.7166 67.8465C17.9568 67.7493 18.1628 67.6005 18.3344 67.4003L18.6776 67.795C18.4774 68.0353 18.2257 68.2183 17.9225 68.3441C17.6251 68.47 17.2962 68.5329 16.9358 68.5329ZM20.2006 68.49V62.1236H20.8098V68.49H20.2006ZM23.9543 68.5329C23.531 68.5329 23.2049 68.4185 22.9761 68.1897C22.7473 67.9609 22.6329 67.6377 22.6329 67.2202V62.9902H23.2421V67.1858C23.2421 67.449 23.3079 67.652 23.4395 67.795C23.5767 67.938 23.7712 68.0095 24.0229 68.0095C24.2917 68.0095 24.5148 67.9323 24.6921 67.7779L24.9066 68.2154C24.7865 68.3241 24.6407 68.4042 24.4691 68.4557C24.3032 68.5072 24.1316 68.5329 23.9543 68.5329ZM21.8264 64.4917V63.9855H24.6149V64.4917H21.8264ZM25.9661 70.1974C25.7545 70.1974 25.5514 70.1631 25.3569 70.0945C25.1682 70.0258 25.0052 69.9229 24.8679 69.7856L25.151 69.3308C25.2654 69.4395 25.3884 69.5225 25.52 69.5797C25.6572 69.6426 25.8088 69.674 25.9747 69.674C26.1749 69.674 26.3465 69.6168 26.4895 69.5024C26.6382 69.3938 26.7784 69.1993 26.9099 68.919L27.2016 68.2583L27.2703 68.164L29.1236 63.9855H29.7242L27.4676 69.0305C27.3418 69.3223 27.2016 69.5539 27.0472 69.7255C26.8985 69.8971 26.7355 70.0172 26.5581 70.0859C26.3808 70.1602 26.1835 70.1974 25.9661 70.1974ZM27.1673 68.6187L25.091 63.9855H25.7259L27.562 68.1211L27.1673 68.6187ZM32.9306 68.49V63.4192C32.9306 63.0188 33.0479 62.6956 33.2824 62.4497C33.5169 62.2037 33.8544 62.0807 34.2948 62.0807C34.4664 62.0807 34.6323 62.1036 34.7925 62.1494C34.9526 62.1951 35.087 62.2666 35.1957 62.3639L34.9898 62.8186C34.904 62.7443 34.8039 62.6899 34.6895 62.6556C34.5751 62.6156 34.4521 62.5955 34.3206 62.5955C34.0632 62.5955 33.8658 62.667 33.7285 62.81C33.5913 62.953 33.5226 63.1647 33.5226 63.445V64.1314L33.5398 64.4145V68.49H32.9306ZM32.1241 64.4917V63.9855H34.9126V64.4917H32.1241ZM35.7351 68.49V63.9855H36.3186V65.2124L36.2585 64.9979C36.3843 64.6547 36.596 64.3945 36.8934 64.2172C37.1909 64.0341 37.5598 63.9426 38.0002 63.9426V64.5346C37.9774 64.5346 37.9545 64.5346 37.9316 64.5346C37.9087 64.5289 37.8858 64.526 37.863 64.526C37.3882 64.526 37.0164 64.6719 36.7476 64.9636C36.4787 65.2496 36.3443 65.6586 36.3443 66.1906V68.49H35.7351ZM40.9833 68.5329C40.5142 68.5329 40.1024 68.4357 39.7478 68.2412C39.3931 68.041 39.1157 67.7693 38.9155 67.4261C38.7153 67.0772 38.6152 66.6796 38.6152 66.2335C38.6152 65.7873 38.7096 65.3926 38.8983 65.0494C39.0928 64.7062 39.3559 64.4374 39.6877 64.2429C40.0252 64.0427 40.4027 63.9426 40.8203 63.9426C41.2435 63.9426 41.6182 64.0398 41.9442 64.2343C42.276 64.4231 42.5363 64.6919 42.725 65.0408C42.9138 65.384 43.0082 65.7816 43.0082 66.2335C43.0082 66.2621 43.0053 66.2935 42.9996 66.3278C42.9996 66.3564 42.9996 66.3879 42.9996 66.4222H39.0785V65.9675H42.6735L42.4333 66.1477C42.4333 65.8216 42.3618 65.5328 42.2188 65.2811C42.0815 65.0237 41.8928 64.8235 41.6525 64.6805C41.4123 64.5375 41.1349 64.466 40.8203 64.466C40.5114 64.466 40.234 64.5375 39.988 64.6805C39.742 64.8235 39.5504 65.0237 39.4131 65.2811C39.2759 65.5385 39.2072 65.8331 39.2072 66.1648V66.2592C39.2072 66.6024 39.2816 66.9056 39.4303 67.1687C39.5847 67.4261 39.7964 67.6291 40.0652 67.7779C40.3398 67.9209 40.6515 67.9924 41.0004 67.9924C41.275 67.9924 41.5295 67.9437 41.7641 67.8465C42.0043 67.7493 42.2102 67.6005 42.3818 67.4003L42.725 67.795C42.5248 68.0353 42.2731 68.2183 41.97 68.3441C41.6725 68.47 41.3436 68.5329 40.9833 68.5329ZM46.1614 68.5329C45.6924 68.5329 45.2806 68.4357 44.9259 68.2412C44.5713 68.041 44.2939 67.7693 44.0937 67.4261C43.8935 67.0772 43.7934 66.6796 43.7934 66.2335C43.7934 65.7873 43.8877 65.3926 44.0765 65.0494C44.271 64.7062 44.5341 64.4374 44.8659 64.2429C45.2033 64.0427 45.5809 63.9426 45.9984 63.9426C46.4217 63.9426 46.7964 64.0398 47.1224 64.2343C47.4542 64.4231 47.7144 64.6919 47.9032 65.0408C48.0919 65.384 48.1863 65.7816 48.1863 66.2335C48.1863 66.2621 48.1835 66.2935 48.1777 66.3278C48.1777 66.3564 48.1777 66.3879 48.1777 66.4222H44.2567V65.9675H47.8517L47.6115 66.1477C47.6115 65.8216 47.54 65.5328 47.397 65.2811C47.2597 65.0237 47.0709 64.8235 46.8307 64.6805C46.5904 64.5375 46.313 64.466 45.9984 64.466C45.6895 64.466 45.4121 64.5375 45.1662 64.6805C44.9202 64.8235 44.7286 65.0237 44.5913 65.2811C44.454 65.5385 44.3854 65.8331 44.3854 66.1648V66.2592C44.3854 66.6024 44.4597 66.9056 44.6085 67.1687C44.7629 67.4261 44.9745 67.6291 45.2434 67.7779C45.5179 67.9209 45.8297 67.9924 46.1786 67.9924C46.4532 67.9924 46.7077 67.9437 46.9422 67.8465C47.1825 67.7493 47.3884 67.6005 47.56 67.4003L47.9032 67.795C47.703 68.0353 47.4513 68.2183 47.1481 68.3441C46.8507 68.47 46.5218 68.5329 46.1614 68.5329Z" fill="#0D0C10"/>
</svg>
