<svg width="205" height="44" viewBox="0 0 205 44" fill="none" xmlns="http://www.w3.org/2000/svg">
    <path d="M18.977 8.60889C9.92289 8.60889 2.52482 17.809 0.0678555 30.2676C0.0407067 30.3908 0.0135744 30.7057 0 30.8289C0.230765 30.8289 1.00449 30.9111 1.27598 30.1854C5.99987 20.1638 11.7826 13.962 18.9635 13.962C26.2529 13.962 32.3478 21.3549 36.0265 30.8152C36.7866 30.0759 37.954 28.9122 37.954 27.7896C34.9812 16.7275 27.4882 8.60889 18.977 8.60889Z" fill="black"/>
    <path d="M163.245 8.60889C154.191 8.60889 146.793 17.809 144.336 30.2676C144.309 30.3908 144.282 30.7057 144.268 30.8289C144.499 30.8289 145.273 30.9111 145.544 30.1854C150.268 20.1638 156.051 13.962 163.245 13.962C170.535 13.962 176.63 21.3549 180.295 30.8152C181.055 30.0759 182.236 28.9122 182.236 27.7896C179.236 16.7275 171.756 8.60889 163.245 8.60889Z" fill="black"/>
    <path d="M41.0774 8.60889C40.0865 8.60889 39.0277 9.14282 39.0277 10.4024C39.0277 11.0048 40.2494 13.1131 41.1317 15.1941C42.0141 13.0721 43.1815 11.128 43.1815 10.4024C43.1815 9.14282 42.1905 8.60889 41.0774 8.60889Z" fill="black"/>
    <path d="M57.6916 9.1429C51.0402 9.1429 47.1172 10.7995 44.8095 12.3191L47.3479 13.5924C49.4655 12.1959 51.9632 10.8542 56.8364 10.8542C66.5421 10.8542 68.2389 16.7139 68.5376 19.0276L68.5104 18.9591C68.4154 18.9865 68.3204 19.0139 68.2389 19.0413C67.1666 19.3699 65.8227 19.7806 63.5965 19.7806C62.6191 19.7806 61.9811 19.5478 61.1803 19.233C60.1757 18.8496 58.9133 18.3841 56.7957 18.3841C55.0039 18.3841 53.4564 18.7538 52.3026 19.096V21.4508C53.3885 21.1223 54.9767 20.6431 56.7957 20.6431C58.5197 20.6431 59.4291 20.9854 60.3929 21.355C61.2888 21.6973 62.2119 22.0395 63.5965 22.0395C65.9313 22.0395 67.4516 21.6288 68.5919 21.2866C68.5783 21.6973 68.5783 22.0395 68.5647 22.1491C68.3475 24.1616 66.8408 29.6379 56.8364 29.6379C51.3795 29.6379 49.2484 28.5837 47.1307 27.0367L44.7145 28.5153C47.3072 30.1308 50.3207 31.3492 57.6916 31.3492C67.3566 31.3492 74.0217 27.023 74.0217 20.7937C74.0217 14.5507 67.3702 9.1429 57.6916 9.1429Z" fill="black"/>
    <path d="M75.298 16.1798H81.6237V30.8288H86.1168V16.1798H92.2389V14.1672H75.298V16.1798Z" fill="black"/>
    <path d="M117.404 14.1672L108.079 27.2556L99.581 14.1672H94.7757L105.608 30.7604L100.952 37.3045H103.979L120.418 14.1672H117.404Z" fill="black"/>
    <path d="M131.333 13.8799C125.387 13.8799 121.274 15.1394 121.138 17.9871H121.125V18.5758H125.835C125.835 17.0014 126.704 15.8924 131.618 15.8924C136.681 15.8924 137.17 16.9329 137.17 18.5758V20.9169H129.989C123.351 20.9169 120.025 23.1622 120.025 26.2015C120.025 28.8301 122.794 30.8016 128.224 30.8016H141.663V18.3978C141.676 14.9751 139.152 13.8799 131.333 13.8799ZM137.17 28.8164H129.351C125.957 28.8164 124.817 27.6938 124.817 26.0098C124.817 24.3396 126.215 22.9705 129.758 22.9705H137.17V28.8164Z" fill="black"/>
    <path d="M195.946 20.9304H189.186V14.1672H184.625V30.8151H197.249C202.326 30.8151 205 28.6931 205 25.7222C205 22.3132 200.901 20.9304 195.946 20.9304ZM196.177 28.8163H189.186V22.9704H195.81C199.136 22.9704 200.439 24.1204 200.439 25.8043C200.439 27.7347 199.367 28.8163 196.177 28.8163Z" fill="black"/>
</svg>
