<?xml version="1.0" encoding="utf-8"?>
<svg width="65" height="39" viewBox="0 0 67.506 51.932" fill="none" xmlns="http://www.w3.org/2000/svg">
  <path d="M 6.08 36.421 L 0.303 36.421 L 0.303 35.1 C 1.982 34.667 2.947 34.454 3.471 32.456 L 12.603 4.322 C 12.63 3.651 12.537 3.323 12.23 2.811 C 11.678 2.247 11.313 2.042 10.553 1.867 L 8.689 1.867 L 8.689 0.357 L 12.976 0.357 C 14.033 0.708 14.305 1.115 14.467 2.056 L 22.48 31.701 L 30.867 4.322 C 30.385 2.388 29.607 1.779 26.953 1.867 L 26.953 0.357 L 31.426 0.357 C 32.275 0.762 32.565 1.478 32.917 3.189 L 42.049 33.211 C 42.262 33.755 42.394 34.056 42.794 34.533 C 43.204 34.847 43.4 34.898 43.726 34.911 L 44.471 34.911 L 44.471 36.421 L 38.508 36.421 L 38.508 35.1 C 39.311 34.926 39.636 34.737 39.626 33.967 L 39.626 33.892 C 39.625 33.624 39.624 33.452 39.626 33.023 C 39.628 32.554 31.799 6.965 31.799 6.965 L 22.48 36.421 L 21.176 36.421 L 13.349 6.965 L 4.776 33.211 L 4.776 33.967 C 4.806 34.86 5.312 34.901 6.08 35.1 L 6.08 36.421 Z" fill="#0D0C10"/>
  <path d="M 56.778 19.648 L 56.033 15.117 C 54.701 14.105 53.675 13.722 51.56 13.228 C 47.611 12.427 45.501 12.658 41.869 13.984 C 37.773 15.918 36.068 17.309 33.482 20.026 C 31.048 22.86 30.097 24.743 29.009 28.523 C 28.388 32.137 28.331 34.132 29.196 37.586 C 30.228 40.603 30.944 42.225 32.923 44.761 C 34.814 46.699 35.829 47.801 38.328 49.293 C 42.186 51.354 44.415 51.875 48.205 51.748 C 54.727 51.016 57.656 49.696 61.437 45.517 C 64.415 42.29 65.334 40.249 66.469 36.453 C 67.208 32.984 67.097 31.251 66.469 28.334 C 65.574 25.743 64.895 24.699 63.673 22.858 L 62.555 23.991 C 63.829 25.687 64.372 26.716 64.978 28.712 C 65.675 31.891 65.686 33.586 64.978 36.453 C 63.904 39.905 62.817 41.611 60.319 44.384 C 56.433 48.363 53.806 49.551 48.392 49.86 C 44.47 49.423 42.577 48.821 39.819 47.027 C 37.663 45.704 36.687 44.756 35.16 42.873 C 33.327 40.746 32.679 39.42 31.619 37.02 C 30.49 33.788 30.421 31.912 30.687 28.523 C 31.514 25.206 32.44 23.52 34.787 20.781 C 37.403 18.107 39.055 16.844 42.428 15.117 C 45.832 14.148 47.749 14.011 51.187 14.739 C 51.948 14.929 52.366 15.061 53.051 15.494 C 54.344 16.931 54.828 17.865 55.473 19.648 L 56.778 19.648 Z" fill="#0D0C10"/>
</svg>