<?xml version="1.0" encoding="utf-8"?>
<svg width="65" height="39" viewBox="0 0 71.648 47.284" fill="none" xmlns="http://www.w3.org/2000/svg">
  <path d="M5.77729 38.038H0V36.7162C1.67934 36.2831 2.6441 36.071 3.16819 34.0727L12.3 5.93847C12.3265 5.2677 12.2343 4.93998 11.9273 4.4279C11.3747 3.86364 11.0095 3.65896 10.25 3.4838H8.38639V1.97324H12.6728C13.7298 2.32418 14.0022 2.73117 14.1637 3.67262L22.1773 33.3175L30.5637 5.93847C30.0822 4.00476 29.3034 3.39556 26.6501 3.4838V1.97324H31.1228C31.9721 2.37878 32.2614 3.09458 32.6137 4.80555L41.7456 34.828C41.9586 35.372 42.0907 35.6724 42.491 36.1498C42.9007 36.4631 43.0964 36.5149 43.4229 36.5274H44.1683V38.038H38.2047V36.7162C39.0076 36.5427 39.3333 36.3538 39.3228 35.5833L39.3225 35.5085C39.3214 35.2405 39.3206 35.069 39.3228 34.6392C39.3252 34.1709 31.4955 8.58196 31.4955 8.58196L22.1773 38.038H20.8728L13.0455 8.58196L4.47274 34.828V35.5833C4.50276 36.4765 5.00934 36.5171 5.77729 36.7162V38.038Z" fill="#0D0C10"/>
  <path d="M 56.576 14.495 L 55.831 9.964 C 54.499 8.952 53.473 8.569 51.358 8.075 C 47.409 7.274 45.299 7.505 41.667 8.831 C 37.571 10.765 35.866 12.156 33.28 14.873 C 30.846 17.707 29.895 19.59 28.807 23.37 C 28.186 26.984 28.129 28.979 28.994 32.433 C 30.026 35.45 30.742 37.072 32.721 39.608 C 34.612 41.546 35.627 42.648 38.126 44.14 C 41.984 46.201 44.213 46.722 48.003 46.595 C 54.525 45.863 57.454 44.543 61.235 40.364 C 64.213 37.137 65.132 35.096 66.267 31.3 C 67.006 27.831 66.895 26.098 66.267 23.181 C 65.372 20.59 64.693 19.546 63.471 17.705 L 62.353 18.838 C 63.627 20.534 64.17 21.563 64.776 23.559 C 65.473 26.738 65.484 28.433 64.776 31.3 C 63.702 34.752 62.615 36.458 60.117 39.231 C 56.231 43.21 53.604 44.398 48.19 44.707 C 44.268 44.27 42.375 43.668 39.617 41.874 C 37.461 40.551 36.485 39.603 34.958 37.72 C 33.125 35.593 32.477 34.267 31.417 31.867 C 30.288 28.635 30.219 26.759 30.485 23.37 C 31.312 20.053 32.238 18.367 34.585 15.628 C 37.201 12.954 38.853 11.691 42.226 9.964 C 45.63 8.995 47.547 8.858 50.985 9.586 C 51.746 9.776 52.164 9.908 52.849 10.341 C 54.142 11.778 54.626 12.712 55.271 14.495 L 56.576 14.495 Z" fill="#0D0C10"/>
</svg>
